<mxfile host="Electron" modified="2023-07-11T12:08:12.077Z" agent="Mozilla/5.0 (Windows NT 10.0; Win64; x64) AppleWebKit/537.36 (KHTML, like Gecko) draw.io/21.6.1 Chrome/112.0.5615.204 Electron/24.6.1 Safari/537.36" etag="-Yo0q-J8ZX4OpIzQOBrH" version="21.6.1" type="device">
  <diagram name="Page-1" id="zyxiw9FbqKM8YMbMxmFc">
    <mxGraphModel dx="1098" dy="828" grid="1" gridSize="10" guides="1" tooltips="1" connect="1" arrows="1" fold="1" page="1" pageScale="1" pageWidth="850" pageHeight="1100" math="0" shadow="0">
      <root>
        <mxCell id="0" />
        <mxCell id="1" parent="0" />
        <mxCell id="Vp7MOqGNCMfIOp8xSx-s-2" style="edgeStyle=orthogonalEdgeStyle;rounded=0;orthogonalLoop=1;jettySize=auto;html=1;" edge="1" parent="1" source="Vp7MOqGNCMfIOp8xSx-s-1" target="Vp7MOqGNCMfIOp8xSx-s-3">
          <mxGeometry relative="1" as="geometry">
            <mxPoint x="235" y="200" as="targetPoint" />
          </mxGeometry>
        </mxCell>
        <mxCell id="Vp7MOqGNCMfIOp8xSx-s-1" value="start" style="ellipse;whiteSpace=wrap;html=1;" vertex="1" parent="1">
          <mxGeometry x="190" y="110" width="90" height="40" as="geometry" />
        </mxCell>
        <mxCell id="Vp7MOqGNCMfIOp8xSx-s-4" style="edgeStyle=orthogonalEdgeStyle;rounded=0;orthogonalLoop=1;jettySize=auto;html=1;" edge="1" parent="1" source="Vp7MOqGNCMfIOp8xSx-s-3" target="Vp7MOqGNCMfIOp8xSx-s-5">
          <mxGeometry relative="1" as="geometry">
            <mxPoint x="235" y="310" as="targetPoint" />
          </mxGeometry>
        </mxCell>
        <mxCell id="Vp7MOqGNCMfIOp8xSx-s-3" value="Masukkan Data" style="shape=parallelogram;perimeter=parallelogramPerimeter;whiteSpace=wrap;html=1;fixedSize=1;" vertex="1" parent="1">
          <mxGeometry x="175" y="190" width="120" height="60" as="geometry" />
        </mxCell>
        <mxCell id="Vp7MOqGNCMfIOp8xSx-s-6" value="Ya" style="edgeStyle=orthogonalEdgeStyle;rounded=0;orthogonalLoop=1;jettySize=auto;html=1;" edge="1" parent="1" source="Vp7MOqGNCMfIOp8xSx-s-5" target="Vp7MOqGNCMfIOp8xSx-s-7">
          <mxGeometry relative="1" as="geometry">
            <mxPoint x="235" y="450" as="targetPoint" />
          </mxGeometry>
        </mxCell>
        <mxCell id="Vp7MOqGNCMfIOp8xSx-s-10" style="edgeStyle=orthogonalEdgeStyle;rounded=0;orthogonalLoop=1;jettySize=auto;html=1;" edge="1" parent="1">
          <mxGeometry relative="1" as="geometry">
            <mxPoint x="235" y="170" as="targetPoint" />
            <mxPoint x="290" y="345" as="sourcePoint" />
            <Array as="points">
              <mxPoint x="330" y="345" />
              <mxPoint x="330" y="170" />
            </Array>
          </mxGeometry>
        </mxCell>
        <mxCell id="Vp7MOqGNCMfIOp8xSx-s-5" value="Validasi &lt;br&gt;Data&lt;br&gt;?" style="rhombus;whiteSpace=wrap;html=1;" vertex="1" parent="1">
          <mxGeometry x="187.5" y="300" width="95" height="90" as="geometry" />
        </mxCell>
        <mxCell id="Vp7MOqGNCMfIOp8xSx-s-8" style="edgeStyle=orthogonalEdgeStyle;rounded=0;orthogonalLoop=1;jettySize=auto;html=1;" edge="1" parent="1" source="Vp7MOqGNCMfIOp8xSx-s-7" target="Vp7MOqGNCMfIOp8xSx-s-9">
          <mxGeometry relative="1" as="geometry">
            <mxPoint x="235" y="540" as="targetPoint" />
          </mxGeometry>
        </mxCell>
        <mxCell id="Vp7MOqGNCMfIOp8xSx-s-7" value="Proses dan simpan Data" style="rounded=0;whiteSpace=wrap;html=1;" vertex="1" parent="1">
          <mxGeometry x="175" y="440" width="120" height="60" as="geometry" />
        </mxCell>
        <mxCell id="Vp7MOqGNCMfIOp8xSx-s-9" value="end" style="ellipse;whiteSpace=wrap;html=1;" vertex="1" parent="1">
          <mxGeometry x="187.5" y="550" width="95" height="40" as="geometry" />
        </mxCell>
      </root>
    </mxGraphModel>
  </diagram>
</mxfile>
